<svg width="11" height="12" viewBox="0 0 11 12" fill="none" xmlns="http://www.w3.org/2000/svg">
<g clip-path="url(#clip0_3_30)">
<path d="M1.21213 10.2425H2.6687C2.7889 10.2425 2.88967 10.2834 2.97104 10.3652C3.0523 10.4469 3.09294 10.5483 3.09294 10.6692C3.09294 10.7901 3.0523 10.8906 2.97104 10.9707C2.88967 11.0509 2.7889 11.0909 2.6687 11.0909H0.78789C0.667688 11.0909 0.566953 11.0503 0.485688 10.9689C0.404327 10.8876 0.363647 10.7869 0.363647 10.6667V8.78589C0.363647 8.66568 0.404564 8.56491 0.486395 8.48354C0.568132 8.40229 0.669478 8.36164 0.790435 8.36164C0.911296 8.36164 1.0118 8.40229 1.09193 8.48354C1.17206 8.56491 1.21213 8.66568 1.21213 8.78589V10.2425ZM9.69698 10.2425V8.78589C9.69698 8.66568 9.73791 8.56491 9.81973 8.48354C9.90146 8.40229 10.0028 8.36164 10.1238 8.36164C10.2446 8.36164 10.3451 8.40229 10.4253 8.48354C10.5054 8.56491 10.5455 8.66568 10.5455 8.78589V10.6667C10.5455 10.7869 10.5048 10.8876 10.4236 10.9689C10.3422 11.0503 10.2414 11.0909 10.1212 11.0909H8.24041C8.12021 11.0909 8.01947 11.05 7.93821 10.9682C7.85684 10.8865 7.81617 10.7851 7.81617 10.6641C7.81617 10.5433 7.85684 10.4428 7.93821 10.3627C8.01947 10.2825 8.12021 10.2425 8.24041 10.2425H9.69698ZM1.21213 1.7576V3.21417C1.21213 3.33437 1.17122 3.43511 1.08938 3.51637C1.00765 3.59774 0.906302 3.63841 0.785344 3.63841C0.664483 3.63841 0.563983 3.59774 0.48385 3.51637C0.403716 3.43511 0.363647 3.33437 0.363647 3.21417V1.33336C0.363647 1.21316 0.404327 1.11238 0.485688 1.03102C0.566953 0.949753 0.667688 0.909119 0.78789 0.909119H2.6687C2.7889 0.909119 2.88967 0.950035 2.97104 1.03187C3.0523 1.1136 3.09294 1.21495 3.09294 1.33591C3.09294 1.45677 3.0523 1.55727 2.97104 1.6374C2.88967 1.71754 2.7889 1.7576 2.6687 1.7576H1.21213ZM9.69698 1.7576H8.24041C8.12021 1.7576 8.01947 1.71669 7.93821 1.63486C7.85684 1.55312 7.81617 1.45177 7.81617 1.33082C7.81617 1.20995 7.85684 1.10945 7.93821 1.02932C8.01947 0.949187 8.12021 0.909119 8.24041 0.909119H10.1212C10.2414 0.909119 10.3422 0.949753 10.4236 1.03102C10.5048 1.11238 10.5455 1.21316 10.5455 1.33336V3.21417C10.5455 3.33437 10.5045 3.43511 10.4227 3.51637C10.341 3.59774 10.2396 3.63841 10.1187 3.63841C9.99783 3.63841 9.89731 3.59774 9.81718 3.51637C9.73706 3.43511 9.69698 3.33437 9.69698 3.21417V1.7576Z" fill="white"/>
</g>
<defs>
<clipPath id="clip0_3_30">
<rect width="10.1818" height="10.1818" fill="white" transform="translate(0.363647 0.909119)"/>
</clipPath>
</defs>
</svg>
